<?xml version="1.0" standalone="no"?>
<!DOCTYPE svg PUBLIC "-//W3C//DTD SVG 20010904//EN"
 "http://www.w3.org/TR/2001/REC-SVG-20010904/DTD/svg10.dtd">
<svg version="1.0" xmlns="http://www.w3.org/2000/svg"
 width="45.000000pt" height="45.000000pt" viewBox="0 0 45.000000 45.000000"
 preserveAspectRatio="xMidYMid meet">

<g transform="translate(0.000000,45.000000) scale(0.100000,-0.100000)"
fill="#000000" stroke="none">
<path d="M222 430 c0 -14 2 -19 5 -12 2 6 2 18 0 25 -3 6 -5 1 -5 -13z"/>
<path d="M116 407 c3 -10 9 -15 12 -12 3 3 0 11 -7 18 -10 9 -11 8 -5 -6z"/>
<path d="M325 409 c-4 -6 -5 -12 -2 -15 2 -3 7 2 10 11 7 17 1 20 -8 4z"/>
<path d="M202 314 l-18 -35 -26 21 c-16 12 -29 16 -33 10 -3 -5 0 -10 8 -10
24 0 44 -33 38 -59 l-7 -25 -20 25 c-11 13 -24 25 -29 26 -6 1 -18 5 -28 8
-16 7 -17 3 -11 -36 4 -24 13 -56 20 -71 18 -34 17 -38 -1 -38 -8 0 -15 -4
-15 -10 0 -5 15 -10 33 -10 20 0 27 3 19 8 -7 5 20 8 62 7 86 -1 118 -15 36
-15 -29 0 -51 -3 -47 -6 9 -9 187 7 187 17 0 5 -7 9 -15 9 -19 0 -19 4 1 43
l17 31 -35 -37 c-20 -20 -45 -37 -57 -37 -25 0 -25 -1 -5 41 31 63 104 123 88
72 -5 -15 -4 -16 5 -3 19 27 13 41 -14 34 -20 -5 -25 -2 -25 13 0 31 -11 34
-38 12 l-26 -20 -18 35 c-10 20 -21 36 -23 36 -2 0 -13 -16 -23 -36z m48 -24
c34 -67 21 -150 -25 -150 -46 0 -59 83 -25 150 11 22 22 40 25 40 3 0 14 -18
25 -40z m70 -13 c0 -13 -8 -32 -19 -41 -18 -16 -19 -16 -23 8 -3 15 1 31 11
40 22 22 31 20 31 -7z m-188 -44 c21 -23 58 -86 58 -100 0 -1 -9 -3 -19 -3
-34 0 -72 42 -81 88 -9 50 4 55 42 15z m195 -109 c-3 -3 -12 -4 -19 -1 -8 3
-5 6 6 6 11 1 17 -2 13 -5z"/>
<path d="M37 329 c7 -7 15 -10 18 -7 3 3 -2 9 -12 12 -14 6 -15 5 -6 -5z"/>
<path d="M400 330 c-9 -6 -10 -10 -3 -10 6 0 15 5 18 10 8 12 4 12 -15 0z"/>
<path d="M7 223 c7 -2 19 -2 26 0 6 3 1 5 -13 5 -14 0 -19 -2 -13 -5z"/>
<path d="M418 223 c6 -2 18 -2 25 0 6 3 1 5 -13 5 -14 0 -19 -2 -12 -5z"/>
<path d="M35 120 c-3 -6 1 -7 9 -4 18 7 21 14 7 14 -6 0 -13 -4 -16 -10z"/>
<path d="M390 126 c0 -2 7 -7 16 -10 8 -3 12 -2 9 4 -6 10 -25 14 -25 6z"/>
<path d="M116 43 c-6 -14 -5 -15 5 -6 7 7 10 15 7 18 -3 3 -9 -2 -12 -12z"/>
<path d="M320 51 c0 -6 4 -13 10 -16 6 -3 7 1 4 9 -7 18 -14 21 -14 7z"/>
<path d="M222 20 c0 -14 2 -19 5 -12 2 6 2 18 0 25 -3 6 -5 1 -5 -13z"/>
</g>
</svg>
