<?xml version="1.0" standalone="no"?>
<!DOCTYPE svg PUBLIC "-//W3C//DTD SVG 20010904//EN"
 "http://www.w3.org/TR/2001/REC-SVG-20010904/DTD/svg10.dtd">
<svg version="1.0" xmlns="http://www.w3.org/2000/svg"
 width="92.000000pt" height="76.000000pt" viewBox="0 0 92.000000 76.000000"
 preserveAspectRatio="xMidYMid meet">
<metadata>
Created by potrace 1.13, written by Peter Selinger 2001-2015
</metadata>
<g transform="translate(0.000000,76.000000) scale(0.100000,-0.100000)"
fill="#000000" stroke="none">
<path d="M328 735 c-39 -52 -7 -88 73 -83 66 4 67 21 2 28 -34 4 -48 9 -48 20
0 13 20 15 123 15 l123 0 54 -58 c35 -37 64 -59 85 -63 30 -7 31 -8 28 -58 -3
-50 -3 -51 -38 -54 -20 -2 -50 3 -67 10 -46 20 -143 107 -143 129 0 26 7 24
56 -16 23 -19 47 -35 53 -35 26 0 7 31 -43 69 -49 38 -57 41 -75 29 -50 -31
-39 -70 41 -140 79 -68 100 -78 164 -78 29 0 56 -4 59 -10 3 -5 37 -10 76 -10
l69 0 0 81 c0 70 -2 80 -16 75 -9 -3 -18 -6 -20 -6 -2 0 -4 -27 -4 -60 l0 -60
-40 0 -40 0 0 74 c0 65 2 74 20 79 11 3 20 10 20 16 0 20 -29 24 -55 7 -13 -9
-29 -16 -35 -16 -5 0 -38 27 -72 60 -33 33 -67 60 -75 60 -7 0 -13 5 -13 10 0
6 -47 10 -122 10 -118 -1 -124 -2 -140 -25z"/>
<path d="M895 630 c-3 -5 1 -10 9 -10 9 0 16 5 16 10 0 6 -4 10 -9 10 -6 0
-13 -4 -16 -10z"/>
<path d="M380 620 c0 -5 5 -10 10 -10 6 0 10 5 10 10 0 6 -4 10 -10 10 -5 0
-10 -4 -10 -10z"/>
<path d="M335 610 c-4 -6 -3 -16 3 -22 6 -6 12 -6 17 2 4 6 3 16 -3 22 -6 6
-12 6 -17 -2z"/>
<path d="M285 571 c-7 -12 12 -24 25 -16 11 7 4 25 -10 25 -5 0 -11 -4 -15 -9z"/>
<path d="M255 540 c-4 -6 -3 -16 3 -22 6 -6 12 -6 17 2 4 6 3 16 -3 22 -6 6
-12 6 -17 -2z"/>
<path d="M215 491 c-7 -12 12 -24 25 -16 11 7 4 25 -10 25 -5 0 -11 -4 -15 -9z"/>
<path d="M370 463 c-31 -11 -60 -47 -60 -73 0 -40 104 -140 145 -140 21 0 122
75 136 101 14 27 10 62 -10 88 -18 23 -38 26 -116 19 -11 -1 -33 1 -50 5 -16
3 -37 3 -45 0z m64 -48 c3 -8 12 -15 19 -15 8 0 20 7 27 15 7 8 25 15 40 15
34 0 54 -37 35 -63 -18 -25 -86 -77 -101 -77 -7 0 -34 20 -60 44 -45 41 -47
45 -36 70 9 19 19 26 41 26 16 0 31 -6 35 -15z"/>
<path d="M195 450 c-4 -6 -3 -16 3 -22 6 -6 12 -6 17 2 4 6 3 16 -3 22 -6 6
-12 6 -17 -2z"/>
<path d="M692 409 c2 -6 8 -10 13 -10 5 0 11 4 13 10 2 6 -4 11 -13 11 -9 0
-15 -5 -13 -11z"/>
<path d="M190 385 c0 -8 7 -15 15 -15 8 0 15 7 15 15 0 8 -7 15 -15 15 -8 0
-15 -7 -15 -15z"/>
<path d="M692 358 c6 -18 28 -21 28 -4 0 9 -7 16 -16 16 -9 0 -14 -5 -12 -12z"/>
<path d="M195 340 c-8 -13 4 -32 16 -25 12 8 12 35 0 35 -6 0 -13 -4 -16 -10z"/>
<path d="M13 323 c-9 -3 -13 -29 -13 -80 0 -66 2 -74 18 -71 13 3 17 14 18 58
l1 55 34 0 34 0 3 -72 c3 -68 1 -73 -18 -73 -13 0 -20 -7 -20 -20 0 -24 26
-26 58 -5 29 21 53 8 113 -59 l47 -51 135 -3 c147 -4 177 3 177 42 0 39 -31
58 -89 54 -65 -4 -67 -21 -4 -28 34 -4 48 -9 48 -20 0 -13 -20 -15 -120 -15
l-120 0 -62 63 c-44 44 -69 62 -88 62 -25 0 -26 2 -23 53 3 52 3 52 38 55 20
2 51 -4 70 -12 38 -17 140 -107 140 -125 0 -19 -24 -11 -60 19 -37 32 -60 38
-60 16 0 -18 92 -96 113 -96 16 0 57 45 57 62 0 14 -112 123 -151 147 -23 14
-51 21 -85 21 -29 0 -65 7 -80 15 -28 14 -86 19 -111 8z"/>
<path d="M685 311 c-7 -12 12 -24 25 -16 11 7 4 25 -10 25 -5 0 -11 -4 -15 -9z"/>
<path d="M670 255 c0 -8 5 -15 10 -15 6 0 10 7 10 15 0 8 -4 15 -10 15 -5 0
-10 -7 -10 -15z"/>
<path d="M635 220 c-4 -6 -3 -16 3 -22 6 -6 12 -6 17 2 4 6 3 16 -3 22 -6 6
-12 6 -17 -2z"/>
<path d="M595 190 c-4 -6 -3 -16 3 -22 6 -6 12 -6 17 2 4 6 3 16 -3 22 -6 6
-12 6 -17 -2z"/>
<path d="M545 151 c-3 -5 -1 -12 5 -16 12 -7 30 2 30 16 0 12 -27 12 -35 0z"/>
<path d="M492 134 c4 -21 22 -23 26 -1 2 10 -3 17 -13 17 -10 0 -15 -6 -13
-16z"/>
<path d="M0 118 c0 -17 2 -18 15 -8 19 15 19 16 0 24 -10 4 -15 -1 -15 -16z"/>
</g>
</svg>
