<?xml version="1.0" standalone="no"?>
<!DOCTYPE svg PUBLIC "-//W3C//DTD SVG 20010904//EN"
 "http://www.w3.org/TR/2001/REC-SVG-20010904/DTD/svg10.dtd">
<svg version="1.0" xmlns="http://www.w3.org/2000/svg"
 width="76.000000pt" height="86.000000pt" viewBox="0 0 76.000000 86.000000"
 preserveAspectRatio="xMidYMid meet">
<metadata>
Created by potrace 1.13, written by Peter Selinger 2001-2015
</metadata>
<g transform="translate(0.000000,86.000000) scale(0.100000,-0.100000)"
fill="#000000" stroke="none">
<path d="M6 844 c-3 -9 -6 -87 -6 -175 l0 -159 25 -12 c13 -6 28 -24 34 -39
13 -37 27 -37 46 1 26 51 45 39 45 -30 0 -49 4 -62 20 -72 24 -15 30 -98 7
-98 -8 0 -22 -8 -31 -19 -14 -15 -16 -36 -14 -127 l3 -109 160 -3 c192 -3 185
-8 185 121 0 86 -1 90 -30 117 -24 22 -30 36 -30 69 l0 42 68 -3 67 -3 14 -43
c16 -52 30 -50 49 6 13 40 15 42 55 42 26 1 51 8 65 19 21 19 22 25 22 193 0
200 1 198 -100 208 l-54 5 -9 43 -8 42 -289 0 c-253 0 -289 -2 -294 -16z m574
-44 l0 -30 -196 0 c-115 0 -203 -4 -215 -10 -16 -9 -19 -22 -19 -71 0 -44 3
-59 12 -56 8 2 12 19 10 43 -1 21 1 44 5 50 6 8 87 13 270 15 222 3 265 1 277
-11 11 -12 13 -45 7 -180 l-6 -165 -52 -3 c-40 -2 -55 -8 -63 -23 -14 -25 -26
-24 -33 1 -5 18 -14 20 -86 20 -52 0 -81 4 -81 11 0 6 -6 9 -12 6 -9 -2 -12
-24 -10 -72 3 -48 1 -65 -7 -60 -6 3 -9 11 -5 16 12 20 -8 99 -32 128 -30 36
-30 39 4 34 l27 -4 -30 25 c-45 38 -55 34 -55 -23 0 -43 3 -50 23 -54 12 -2
-13 -5 -55 -6 l-77 -1 -3 92 c-2 62 -7 93 -15 96 -7 2 -13 -3 -13 -12 0 -8
-10 -21 -22 -27 -13 -7 -28 -19 -34 -27 -10 -14 -12 -14 -20 0 -5 8 -19 20
-31 27 -22 11 -23 17 -23 150 0 76 3 141 7 144 3 4 129 7 280 7 l273 0 0 -30z
m-346 -494 c1 -20 -1 -39 -6 -42 -4 -3 -8 16 -8 42 0 55 9 54 14 0z m104 -3
l3 -43 -40 0 c-41 0 -41 0 -41 38 0 47 6 54 45 50 28 -3 30 -6 33 -45z m100
-85 c18 -18 16 -172 -2 -187 -9 -8 -56 -11 -142 -9 l-129 3 -3 94 c-2 69 1 97
10 103 21 13 252 10 266 -4z"/>
<path d="M242 668 c3 -7 24 -15 49 -16 71 -6 289 9 283 19 -3 5 -80 9 -170 9
-128 0 -165 -3 -162 -12z"/>
<path d="M615 670 c-3 -5 3 -10 14 -10 12 0 21 5 21 10 0 6 -6 10 -14 10 -8 0
-18 -4 -21 -10z"/>
<path d="M240 605 c0 -11 7 -15 23 -13 12 2 22 8 22 13 0 6 -10 11 -22 13 -16
2 -23 -2 -23 -13z"/>
<path d="M318 614 c-19 -19 17 -24 168 -24 128 0 165 3 162 13 -4 9 -48 13
-164 15 -88 2 -162 0 -166 -4z"/>
<path d="M247 543 c-19 -18 3 -23 108 -23 96 0 115 3 115 15 0 12 -19 15 -108
15 -60 0 -112 -3 -115 -7z"/>
<path d="M527 544 c-18 -18 -2 -24 59 -24 48 0 65 3 62 13 -5 13 -109 23 -121
11z"/>
<path d="M262 187 c-12 -15 -11 -115 1 -134 11 -18 62 -16 77 2 6 8 9 23 5 34
-3 11 -1 30 5 41 25 47 -55 98 -88 57z m61 -32 c4 -8 2 -17 -3 -20 -6 -4 -10
-20 -10 -38 0 -42 -16 -23 -25 31 -6 38 -5 42 13 42 11 0 22 -7 25 -15z"/>
</g>
</svg>
